<?xml version="1.0" standalone="no"?>
<!DOCTYPE svg PUBLIC "-//W3C//DTD SVG 20010904//EN"
 "http://www.w3.org/TR/2001/REC-SVG-20010904/DTD/svg10.dtd">
<svg version="1.0" xmlns="http://www.w3.org/2000/svg"
 width="1200.000000pt" height="1200.000000pt" viewBox="0 0 1200.000000 1200.000000"
 preserveAspectRatio="xMidYMid meet">
<metadata>
Created by potrace 1.11, written by Peter Selinger 2001-2013
</metadata>
<g transform="translate(0.000000,1200.000000) scale(0.100000,-0.100000)"
fill="#000000" stroke="none">
<path d="M5708 9064 c-4 -3 -12 -7 -20 -8 -7 -1 -58 -16 -113 -33 -55 -18
-138 -43 -185 -57 -47 -13 -143 -43 -215 -65 -71 -21 -236 -72 -365 -111 -129
-40 -255 -78 -280 -85 -121 -36 -565 -170 -925 -281 -258 -79 -381 -116 -395
-119 -8 -2 -16 -4 -17 -5 -2 -2 -6 -3 -10 -4 -5 -1 -29 -8 -55 -15 -44 -12
-48 -16 -49 -45 -2 -140 9 -4238 13 -4240 3 -2 934 -261 1068 -297 65 -17 88
-23 270 -74 52 -14 102 -28 110 -30 14 -4 543 -149 760 -209 52 -15 118 -33
145 -41 59 -18 373 -105 395 -110 34 -7 389 -106 435 -120 108 -34 150 -29
300 35 11 5 31 12 45 15 14 3 41 12 60 20 66 25 145 54 340 124 107 38 290
103 405 144 534 191 781 279 790 281 6 2 17 6 25 9 8 4 65 24 125 45 391 138
492 174 510 182 11 4 49 18 85 31 36 12 69 26 75 31 6 5 10 92 11 211 1 111 5
594 8 1072 7 1000 17 2385 20 2748 1 136 0 247 -2 247 -2 0 -51 11 -110 24
-59 14 -120 27 -136 30 -16 3 -33 11 -37 17 -4 7 -14 9 -23 6 -8 -3 -18 -1
-22 4 -3 6 -15 9 -25 6 -11 -3 -43 1 -72 9 -28 8 -68 17 -87 20 -19 3 -62 12
-95 21 -33 8 -69 17 -80 19 -20 4 -315 70 -435 98 -36 8 -76 17 -90 20 -59 11
-254 58 -261 62 -4 2 -34 9 -66 15 -32 6 -177 37 -323 71 -305 69 -275 62
-365 82 -99 21 -419 94 -490 111 -33 8 -71 16 -85 19 -14 2 -77 16 -140 31
-156 36 -292 66 -311 70 -9 2 -34 8 -55 14 -45 13 -49 13 -56 5z m-2424 -2526
c-3 -18 -5 -84 -6 -145 -1 -62 -5 -113 -9 -113 -5 0 -6 -6 -3 -13 3 -8 1 -24
-4 -38 -12 -34 -6 -51 32 -79 21 -15 33 -32 31 -42 -3 -11 3 -18 13 -19 10 0
12 -3 5 -6 -7 -2 -13 -11 -13 -19 0 -8 -5 -14 -11 -14 -5 0 -9 -8 -8 -17 2
-10 -2 -28 -9 -39 -6 -12 -9 -24 -6 -26 3 -3 -8 -31 -23 -63 l-28 -57 -5 344
c-3 188 -3 369 -2 402 l4 58 23 -40 c16 -28 22 -51 19 -74z m-29 -899 c-4 -5
-1 -9 5 -9 6 0 8 -4 5 -10 -11 -19 -25 -10 -25 16 0 14 4 23 10 19 6 -4 8 -11
5 -16z m5 -69 c0 -10 -5 -22 -10 -25 -6 -4 -10 5 -8 24 2 32 18 33 18 1z m15
-345 c11 -25 23 -45 27 -45 4 0 6 -16 5 -35 -1 -19 -5 -35 -8 -35 -4 0 -6 -10
-5 -22 0 -13 -4 -23 -11 -23 -6 0 -15 -4 -20 -9 -5 -5 -2 -6 6 -1 9 5 12 3 9
-6 -3 -8 -11 -15 -20 -17 -12 -2 -15 16 -15 118 0 66 3 120 6 120 4 0 15 -20
26 -45z m39 -1123 c-1 -2 -17 1 -35 5 -28 8 -33 14 -35 43 l-3 34 38 -40 c21
-21 37 -40 35 -42z"/>
</g>
</svg>
